<svg width="42" height="35" viewBox="0 0 42 35" fill="none" xmlns="http://www.w3.org/2000/svg">
<path d="M3.75586 34.0684C2.9707 34.0684 2.28516 34.0273 1.69922 33.9453C1.10156 33.875 0.585938 33.793 0.152344 33.6992V28.3027C0.527344 28.373 0.925781 28.4492 1.34766 28.5312C1.76953 28.625 2.22656 28.6719 2.71875 28.6719C3.55078 28.6719 4.19531 28.502 4.65234 28.1621C5.12109 27.8223 5.44922 27.3125 5.63672 26.6328C5.82422 25.9531 5.91797 25.1035 5.91797 24.084V0.300781H12.8965V23.4863C12.8965 26.0645 12.5098 28.127 11.7363 29.6738C10.9629 31.2207 9.89062 32.3398 8.51953 33.0312C7.14844 33.7227 5.56055 34.0684 3.75586 34.0684ZM34.2363 26L32.9707 21.1836H24.6211L23.3203 26H15.6914L24.0762 0.195312H33.3398L41.8301 26H34.2363ZM31.5293 15.4883L30.4219 11.2695C30.3047 10.8125 30.1348 10.1621 29.9121 9.31836C29.6895 8.46289 29.4668 7.58398 29.2441 6.68164C29.0332 5.76758 28.8691 5.01758 28.752 4.43164C28.6465 5.01758 28.4941 5.74414 28.2949 6.61133C28.1074 7.4668 27.9082 8.31641 27.6973 9.16016C27.498 10.0039 27.3223 10.707 27.1699 11.2695L26.0625 15.4883H31.5293Z" fill="white"/>
</svg>
